<?xml version="1.0" encoding="UTF-8" standalone="no"?> <svg id="Layer_1" data-name="Layer 1" xmlns="http://www.w3.org/2000/svg" viewBox="0 0 128 128"><defs><style>.cls-1{fill:#2d3e50;}</style></defs><title>b</title><path class="cls-1" d="M76.29538,1.4891H51.70471a3.57417,3.57417,0,0,0-3.57318,3.57314V122.9405a3.56946,3.56946,0,0,0,3.57044,3.5704H76.29538a3.57413,3.57413,0,0,0,3.57314-3.57314V5.06224A3.57413,3.57413,0,0,0,76.29538,1.4891Zm-1.35153,99.74712H53.05624V96.31156H74.94385Zm0-69.545H53.05624V26.76651H74.94385Z"/><path class="cls-1" d="M32.06381,1.4891H7.47309A3.57416,3.57416,0,0,0,3.9,5.06224V122.93776a3.57416,3.57416,0,0,0,3.57314,3.57314H32.06381a3.57413,3.57413,0,0,0,3.57314-3.57314V5.06224A3.57413,3.57413,0,0,0,32.06381,1.4891Zm-1.35158,99.74712H8.82467V96.31156H30.71223Zm0-45.11849H8.82467V51.19307H30.71223Z"/><path class="cls-1" d="M120.52691,1.4891H95.93624a3.57417,3.57417,0,0,0-3.57318,3.57314V122.9405a3.56946,3.56946,0,0,0,3.57044,3.5704h24.59341A3.57413,3.57413,0,0,0,124.1,122.93776V5.06224A3.57413,3.57413,0,0,0,120.52691,1.4891Zm-1.35153,99.74712H97.28777V96.31156h21.88761Zm0-69.545H97.28777V26.76651h21.88761Z"/></svg>