<?xml version="1.0" encoding="UTF-8" standalone="no"?> <svg id="Layer_1" data-name="Layer 1" xmlns="http://www.w3.org/2000/svg" viewBox="0 0 128 128" fill="#fff"><defs></defs><title>n</title><path class="cls-1" d="M85.21936,45.72731a7.73459,7.73459,0,1,0,.00307.003Z"/><path class="cls-1" d="M96.6734,42.62485A9.1749,9.1749,0,0,0,91.58,44.173a15.22532,15.22532,0,0,1,0,15.22517A9.16018,9.16018,0,1,0,96.6734,42.62485Z"/><path class="cls-1" d="M117.75846,24.30331H10.24154A8.22646,8.22646,0,0,0,2.0121,32.52968V95.4672a8.22716,8.22716,0,0,0,8.22943,8.22948H117.75846a8.22716,8.22716,0,0,0,8.22943-8.22948V32.52968A8.22646,8.22646,0,0,0,117.75846,24.30331ZM29.49441,91.48226H17.28a3.05356,3.05356,0,1,1,0-6.10711H29.49441a3.05356,3.05356,0,1,1,0,6.10711Zm36.64308,0H53.92311a3.05356,3.05356,0,0,1,0-6.10711H66.13749a3.05356,3.05356,0,1,1,0,6.10711Zm36.64308,0H90.56624a3.05356,3.05356,0,1,1,0-6.10711h12.21433a3.05356,3.05356,0,1,1,0,6.10711ZM96.6734,67.05356a15.2782,15.2782,0,0,1-9.16077-3.05969,15.26793,15.26793,0,1,1,0-24.41648A15.2659,15.2659,0,1,1,96.6734,67.05356Z"/></svg>