<svg fill="#fff" id="Layer_1" enable-background="new 0 0 512.115 512.115" height="512" viewBox="0 0 512.115 512.115" width="512" xmlns="http://www.w3.org/2000/svg"><g><path fill="#fff" 
d="m375.026 224.616-163.243-106.462c-23.85-15.559-59.726-.254-59.726 31.44v212.926c0 20.698 16.839 37.537 37.537 37.537 7.669 0 14.674-1.195 22.188-6.096l163.243-106.463c22.717-14.814 22.685-48.088.001-62.882zm-8.74 49.481-163.245 106.463c-4.622 3.016-8.585 3.497-13.447 3.497-11.875 0-21.537-9.661-21.537-21.537v-212.925c0-11.876 9.661-21.537 21.537-21.537 4.873 0 8.831.485 13.448 3.498l163.244 106.463c13.032 8.498 13.015 27.59 0 36.078z"/><path fill="#fff" d="m437.077 75.038c-100.045-100.044-261.981-100.057-362.039 0-100.043 100.044-100.058 261.98 0 362.039 100.045 100.044 261.981 100.057 362.039 0 100.043-100.044 100.058-261.98 0-362.039zm-181.02 421.019c-132.336 0-240-107.664-240-240s107.664-240 240-240 240 107.664 240 240-107.663 240-240 240z"/></g></svg>