5<svg height="512pt" viewBox="0 -26 512 512" width="812pt" xmlns="http://www.w3.org/2000/svg" fill="#fff"><path d="m482 0h-452c-16.542969 0-30 13.457031-30 30v128.996094c0 5.523437 4.476562 10 10 10s10-4.476563 10-10v-128.996094c0-5.515625 4.484375-10 10-10h452c5.515625 0 10 4.484375 10 10v300c0 5.515625-4.484375 10-10 10h-452c-5.515625 0-10-4.484375-10-10v-91c0-5.523438-4.476562-10-10-10s-10 4.476562-10 10v91c0 16.542969 13.457031 30 30 30h156v40h-50c-16.542969 0-30 13.457031-30 30v10h-50c-5.523438 0-10 4.476562-10 10s4.476562 10 10 10h400c5.523438 0 10-4.476562 10-10s-4.476562-10-10-10h-50v-10c0-16.542969-13.457031-30-30-30h-50v-40h156c16.542969 0 30-13.457031 30-30v-300c0-16.542969-13.457031-30-30-30zm-96 430v10h-260v-10c0-5.515625 4.484375-10 10-10h240c5.515625 0 10 4.484375 10 10zm-80-30h-100v-40h100zm0 0"/><path d="m462 320c5.523438 0 10-4.476562 10-10v-260c0-5.523438-4.476562-10-10-10h-412c-5.523438 0-10 4.476562-10 10v260c0 5.523438 4.476562 10 10 10zm-402-260h392v240h-392zm0 0"/><path d="m10 209c5.519531 0 10-4.480469 10-10s-4.480469-10-10-10-10 4.480469-10 10 4.480469 10 10 10zm0 0"/></svg>